<svg width="567" height="67" viewBox="0 0 567 67" fill="none" xmlns="http://www.w3.org/2000/svg">
<g clip-path="url(#clip0)">
<path d="M543.66 33.49C547.77 33.4 551.51 30.2 551.51 23.91C551.51 17.61 547.77 14.42 543.84 14.33C539.82 14.24 535.63 17.43 535.63 23.91C535.62 30.39 539.64 33.58 543.66 33.49ZM543.66 47.09C531.89 47.09 520.11 39.42 520.11 23.91C520.11 8.3 531.97 0.64 543.75 0.73C555.34 0.82 566.93 8.58 566.93 23.91C566.93 39.33 555.43 47.09 543.66 47.09ZM452.21 33.31C452.21 54.85 468.55 65.8 484.88 65.8C498.48 65.8 512.62 58.59 515.09 40.43H499.03C497.3 47.37 491.82 50.56 484.88 50.56C475.11 50.56 468.91 42.44 468.91 33.22C468.91 22.63 475.21 15.7 484.88 15.7C491.72 15.7 496.56 18.26 498.84 24.83H514.9C512.44 7.76 498.02 0.64 484.87 0.64C468.55 0.64 452.21 11.32 452.21 33.31ZM425.01 17.34C425.47 5.57 416.34 0.18 405.3 0.18C391.88 0.18 384.49 8.76 384.49 17.25C384.4 20.26 385.22 23.18 386.95 25.83C387.68 26.93 388.5 27.93 389.6 28.93C383.85 32.31 380.75 38.51 380.65 45.17C380.38 55.3 387.77 66.25 405.29 66.25C418.89 66.25 427.19 57.95 427.19 44.53V36.77H432.85V23.09H413.59V44.54C413.59 49.38 410.03 52.48 405.29 52.48C399.72 52.48 396.98 48.56 396.98 44.63C396.98 40.7 399.9 36.78 405.29 36.78H408.12V23.27H405.47C403.01 23.27 401.27 22.17 400.54 20.81C400.08 20.17 399.9 19.35 399.9 18.44C399.9 15.25 402.45 13.42 405.65 13.42C408.21 13.42 410.85 14.88 410.85 17.34H425.01V17.34ZM329.28 15.88V65.16H345.43V15.88H361.04V1.28H313.58V15.88H329.28V15.88ZM302.81 65.35H307.74V1.28H291.04V32.49L257.73 1H252.53V65.16H269.23V32.22L302.81 65.35ZM197.95 33.22C197.95 21.54 205.89 15.88 214.2 15.88C222.14 15.88 230.08 21.81 230.08 33.22C230.08 44.63 221.96 50.56 214.02 50.56C205.8 50.56 197.95 44.63 197.95 33.22ZM246.78 33.22C246.78 11.13 230.53 0 214.2 0C197.59 0 181.25 11.13 181.25 33.22C181.25 55.4 197.04 66.35 213.92 66.35C233.27 66.35 246.78 52.75 246.78 33.22ZM143.38 28.75L118 1.1H112.07V65.17H128.77V35.68L142.37 49.92H144.29L157.89 35.68V65.16H174.59V1.1H168.66L143.38 28.75ZM76.02 27.84L82.68 43.26H69.45L76.02 27.84ZM87.98 57.22L91.72 65.16H108.97V62.88L79.95 0.64H72.28L42.98 62.88V65.16H60.41L64.06 57.22H87.98ZM16.7 1.28H0V65.16H39.79V50.2H16.7V1.28Z" fill="black"/>
<path d="M557.04 53.04H530V65.16H557.04V53.04Z" fill="black"/>
</g>
<defs>
<clipPath id="clip0">
<rect width="566.93" height="66.35" fill="white"/>
</clipPath>
</defs>
</svg>
