<svg width="678" height="38" viewBox="0 0 678 38" fill="none" xmlns="http://www.w3.org/2000/svg">
<path d="M106.886 19.0403C106.886 16.5217 107.326 14.1744 108.207 11.9782C109.087 9.78206 110.297 7.8881 111.838 6.29637C113.378 4.69457 115.179 3.44537 117.27 2.51854C119.35 1.60178 121.611 1.13837 124.042 1.13837C126.543 1.13837 128.834 1.58163 130.934 2.46817C133.035 3.3547 134.846 4.59383 136.366 6.19563C137.887 7.78736 139.077 9.69139 139.947 11.8775C140.808 14.0737 141.248 16.4613 141.248 19.0403C141.248 21.5588 140.808 23.9061 139.927 26.1023C139.047 28.2985 137.837 30.1924 136.296 31.7842C134.756 33.386 132.945 34.6352 130.844 35.562C128.744 36.4788 126.483 36.9422 124.042 36.9422C121.571 36.9422 119.29 36.4888 117.2 35.5822C115.099 34.6755 113.288 33.4263 111.768 31.8345C110.247 30.2327 109.057 28.3489 108.187 26.1728C107.316 23.9968 106.886 21.6193 106.886 19.0403ZM111.018 19.0403C111.018 21.1357 111.338 23.0599 111.978 24.8229C112.618 26.5859 113.518 28.097 114.669 29.3664C115.819 30.6458 117.2 31.6431 118.8 32.3685C120.401 33.0938 122.151 33.4565 124.032 33.4565C125.893 33.4565 127.623 33.0838 129.224 32.3483C130.824 31.6028 132.215 30.5954 133.375 29.2958C134.546 28.0063 135.456 26.4851 136.116 24.7221C136.776 22.9692 137.096 21.0652 137.096 19.0403C137.096 16.9751 136.776 15.061 136.136 13.2879C135.496 11.5148 134.596 9.99362 133.445 8.71419C132.295 7.44483 130.914 6.43741 129.314 5.71207C127.713 4.98672 125.953 4.62405 124.032 4.62405C122.171 4.62405 120.451 4.9968 118.87 5.73222C117.29 6.47771 115.909 7.49521 114.739 8.78471C113.568 10.0742 112.658 11.5954 111.998 13.3584C111.348 15.1113 111.018 17.0053 111.018 19.0403Z" fill="black"/>
<path d="M458.546 35.8743C457.655 35.3706 457.285 35.2497 456.605 34.6554C456.465 34.4841 456.325 34.3229 456.195 34.1416C455.585 33.2752 455.104 31.9353 454.754 30.1219L449.803 0L435.038 28.3892L420.283 0L414.801 30.1119C414.451 31.9152 413.97 33.255 413.36 34.1315C413.23 34.3128 413.09 34.474 412.95 34.6453C412.27 35.2397 411.9 35.3706 411.009 35.8643H411.019L410.969 36.2572H417.071H420.883L420.833 35.8643H420.843C419.932 35.3605 419.412 35.1893 419.072 34.6151C419.042 34.5546 419.012 34.4942 418.982 34.4337C418.882 34.1919 418.832 33.93 418.812 33.658C418.792 33.386 418.792 33.0233 418.792 32.57C418.792 32.1872 418.862 31.4719 419.012 30.4443L422.233 12.0891L435.018 37.3754H435.048L447.852 12.0891L450.563 30.4544C450.703 31.482 450.783 32.1972 450.783 32.5801C450.783 33.0334 450.773 33.3961 450.763 33.6681C450.743 33.9401 450.693 34.202 450.593 34.4438C450.573 34.5042 450.533 34.5647 450.503 34.6251C450.163 35.1893 449.642 35.3706 448.732 35.8743H448.742L448.692 36.2672H452.503H458.606L458.546 35.8743Z" fill="black"/>
<path d="M242.232 35.8743C241.302 35.3605 240.732 35.1893 240.392 34.5949C240.051 34.0005 239.891 33.3255 239.891 32.5901V31.2906V6.77995V5.49045C239.891 4.74496 240.061 4.08006 240.392 3.48568C240.732 2.8913 241.302 2.72004 242.232 2.20625H242.222L242.272 1.81335H237.381H233.559L233.609 2.20625H233.599C234.53 2.72004 235.1 2.8913 235.44 3.48568C235.77 4.05991 235.93 4.71473 235.94 5.43V15.6654H217.444V6.8001V5.49045C217.444 4.74496 217.614 4.08006 217.944 3.48568C218.284 2.8913 218.854 2.72004 219.785 2.20625H219.775L219.825 1.81335H214.933H211.112L211.162 2.20625H211.152C212.082 2.72004 212.652 2.8913 212.992 3.48568C213.322 4.06998 213.492 4.73488 213.492 5.46023V31.2906V32.5901C213.492 33.3356 213.322 34.0005 212.992 34.5949C212.652 35.1893 212.082 35.3605 211.152 35.8743H211.162L211.112 36.2672H216.003H219.825L219.775 35.8743H219.785C218.854 35.3605 218.284 35.1893 217.944 34.5949C217.604 34.0005 217.444 33.3255 217.444 32.5901V31.2906V19.0403H235.94V32.5901C235.94 33.3356 235.77 34.0005 235.44 34.5949C235.1 35.1893 234.53 35.3605 233.599 35.8743H233.609L233.559 36.2672H238.451H242.272L242.232 35.8743Z" fill="black"/>
<path d="M355.711 16.6325H350.819H346.998L347.048 17.0254H347.038C347.968 17.5392 348.538 17.7105 348.878 18.3049C349.218 18.8993 349.379 19.5742 349.379 20.3096V20.5111H349.369V32.4894C348.568 32.7513 347.558 32.9729 346.337 33.1644C345.117 33.3558 343.827 33.4565 342.446 33.4565C340.425 33.4565 338.565 33.114 336.854 32.439C335.144 31.764 333.663 30.7969 332.413 29.5578C331.162 28.3187 330.182 26.7975 329.482 25.0143C328.772 23.2211 328.421 21.2163 328.421 18.9899C328.421 16.8643 328.762 14.9199 329.452 13.1569C330.142 11.404 331.082 9.89289 332.283 8.63361C333.483 7.37433 334.904 6.39713 336.534 5.68186C338.165 4.96659 339.925 4.61399 341.816 4.61399C344.317 4.61399 346.568 5.04718 348.568 5.92364C350.569 6.79002 352.129 8.06945 353.25 9.74177V9.76192L353.72 9.83244V5.01696V0.564148L353.33 0.614519V0.604445C352.82 1.54135 352.099 2.61929 350.709 2.4581L350.629 2.43796C350.159 2.30699 349.639 2.17603 349.088 2.03499C348.148 1.7932 347.068 1.58165 345.867 1.41038C344.667 1.22905 343.316 1.14845 341.806 1.14845C339.215 1.14845 336.844 1.61187 334.694 2.54877C332.543 3.48568 330.702 4.75503 329.172 6.36691C327.641 7.97878 326.431 9.86266 325.57 12.0286C324.71 14.1946 324.27 16.5117 324.27 19C324.27 21.4178 324.65 23.7047 325.4 25.8706C326.151 28.0366 327.301 29.9305 328.862 31.5827C330.412 33.2248 332.383 34.5345 334.774 35.5016C337.154 36.4687 339.965 36.9523 343.206 36.9523C344.747 36.9523 346.017 36.9019 347.028 36.8112C348.038 36.7105 348.898 36.5997 349.619 36.4687C350.339 36.3377 350.969 36.2169 351.519 36.106C352.059 35.9952 352.66 35.9046 353.3 35.8441V21.6092H353.31V20.3096C353.31 19.5642 353.48 18.8993 353.81 18.3049C354.15 17.7105 354.72 17.5392 355.651 17.0254H355.641L355.711 16.6325Z" fill="black"/>
<path d="M587.029 5.90349C584.928 5.04718 582.678 4.62406 580.277 4.62406C578.386 4.62406 576.636 4.98673 575.015 5.71208C573.394 6.43742 571.994 7.44485 570.814 8.73435C569.633 10.0238 568.703 11.5451 568.023 13.2778C567.352 15.0207 567.012 16.9247 567.012 18.9899C567.012 21.4077 567.402 23.5233 568.193 25.3266C568.973 27.1299 570.033 28.641 571.364 29.8499C572.694 31.0588 574.215 31.9655 575.925 32.5599C577.636 33.1543 579.427 33.4565 581.277 33.4565C584.098 33.4565 586.509 33.1039 588.48 32.2677C590.35 31.482 590.91 30.8674 590.91 30.8674C591.331 30.5048 592.251 29.2556 592.571 28.8324H592.951L591.691 35.3908H591.701L589.83 35.9751C589.06 36.237 588.039 36.4586 586.779 36.65C585.509 36.8415 583.868 36.9422 581.857 36.9422C578.786 36.9422 576.065 36.4788 573.715 35.562C571.364 34.6453 569.373 33.386 567.753 31.7842C566.132 30.1925 564.922 28.2985 564.101 26.1023C563.281 23.9061 562.881 21.5387 562.881 18.9899C562.881 16.3404 563.351 13.9327 564.301 11.7566C565.242 9.58058 566.512 7.6967 568.093 6.12512C569.683 4.54347 571.524 3.31441 573.645 2.44803C575.755 1.58164 577.966 1.13838 580.277 1.13838C582.548 1.13838 584.538 1.32979 586.239 1.72268H586.219C586.769 1.86372 587.279 1.99469 587.759 2.12565L587.839 2.1458C589.23 2.30699 589.81 1.54135 590.32 0.614516V0.62459L590.71 0.574219L592.221 9.84251L591.751 9.77199V9.75184C590.63 8.07952 589.07 6.80009 587.069 5.93371L587.029 5.90349Z" fill="black"/>
<path d="M279.695 36.2572L279.645 35.8643H279.655C278.725 35.3505 278.154 35.1792 277.814 34.5849C277.474 33.9905 277.314 33.3155 277.314 32.5801V31.2805V6.71953V5.41995C277.314 4.67446 277.484 4.00956 277.814 3.41518C278.154 2.8208 278.725 2.64954 279.655 2.13575H279.645L279.695 1.74286H274.803H270.982L271.032 2.13575H271.022C271.952 2.64954 272.522 2.8208 272.863 3.41518C273.203 4.00956 273.363 4.68453 273.363 5.41995V5.81285V27.8754C273.173 28.1373 272.762 28.5403 272.142 29.0843C271.522 29.6283 270.742 30.1925 269.812 30.7566C268.881 31.3208 267.821 31.8144 266.64 32.2275C265.46 32.6506 264.21 32.8521 262.889 32.8521C261.419 32.8521 260.168 32.57 259.138 32.0058C258.108 31.4417 257.287 30.6559 256.667 29.6384C256.047 28.6209 255.587 27.4019 255.297 25.9815C255.007 24.561 254.866 22.9995 254.866 21.2869V6.71953V5.41995C254.866 4.67446 255.037 4.00956 255.367 3.41518C255.707 2.8208 256.277 2.64954 257.207 2.13575H257.197L257.247 1.74286H252.356H248.534L248.584 2.13575H248.574C249.505 2.64954 250.075 2.8208 250.415 3.41518C250.755 4.00956 250.915 4.68453 250.915 5.41995V23.0297C250.915 25.1554 251.205 27.0594 251.775 28.7418C252.356 30.4141 253.156 31.8346 254.196 33.0032C255.237 34.1617 256.477 35.0483 257.917 35.6628C259.358 36.2773 260.959 36.5795 262.719 36.5795C263.9 36.5795 265.02 36.4184 266.06 36.096C267.101 35.7736 268.061 35.3706 268.941 34.8871C269.822 34.4035 270.632 33.8797 271.372 33.3155C272.112 32.7513 272.763 32.2275 273.343 31.7439L273.323 31.8144H273.343C273.343 32.1872 273.343 32.5801 273.343 32.5801V36.2572H279.695Z" fill="black"/>
<path d="M652.191 36.2572L652.141 35.8643H652.151C651.221 35.3505 650.651 35.1792 650.311 34.5849C649.97 33.9905 649.81 33.3155 649.81 32.5801V31.2805V6.71953V5.41995C649.81 4.67446 649.98 4.00956 650.311 3.41518C650.651 2.8208 651.221 2.64954 652.151 2.13575H652.141L652.191 1.74286H647.3H643.478L643.528 2.13575H643.518C644.449 2.64954 645.019 2.8208 645.359 3.41518C645.699 4.00956 645.859 4.68453 645.859 5.41995V5.81285V27.8754C645.669 28.1373 645.259 28.5403 644.639 29.0843C644.018 29.6283 643.238 30.1925 642.308 30.7566C641.378 31.3208 640.317 31.8144 639.137 32.2275C637.956 32.6506 636.706 32.8521 635.385 32.8521C633.915 32.8521 632.665 32.57 631.634 32.0058C630.604 31.4417 629.784 30.6559 629.163 29.6384C628.543 28.6209 628.083 27.4019 627.793 25.9815C627.503 24.561 627.363 22.9995 627.363 21.2869V6.71953V5.41995C627.363 4.67446 627.533 4.00956 627.863 3.41518C628.203 2.8208 628.773 2.64954 629.704 2.13575H629.694L629.744 1.74286H624.852H621.031L621.081 2.13575H621.071C622.001 2.64954 622.571 2.8208 622.911 3.41518C623.251 4.00956 623.411 4.68453 623.411 5.41995V23.0297C623.411 25.1554 623.702 27.0594 624.272 28.7418C624.852 30.4141 625.652 31.8346 626.693 33.0032C627.733 34.1617 628.973 35.0483 630.414 35.6628C631.854 36.2773 633.455 36.5795 635.215 36.5795C636.396 36.5795 637.516 36.4184 638.557 36.096C639.597 35.7736 640.557 35.3706 641.438 34.8871C642.318 34.4035 643.128 33.8797 643.868 33.3155C644.609 32.7513 645.259 32.2275 645.839 31.7439L645.819 31.8144H645.839C645.839 32.1872 645.839 32.5801 645.839 32.5801V36.2572H652.191Z" fill="black"/>
<path d="M318.518 1.81336H313.626H309.805L309.855 2.20626H309.845C310.775 2.72004 311.346 2.8913 311.686 3.48568C312.026 4.08006 312.186 4.75504 312.186 5.49046V6.79003V27.4019L295.66 8.25079C295.31 7.86797 294.95 7.465 294.58 7.06204C294.21 6.65907 293.86 6.24602 293.52 5.83298L288.118 0V5.92365V32.5801C288.118 33.3256 287.948 33.9905 287.618 34.5848C287.277 35.1792 286.707 35.3505 285.777 35.8643H285.787L285.737 36.2572H290.629H294.45L294.4 35.8643H294.41C293.48 35.3505 292.909 35.1792 292.569 34.5848C292.229 33.9905 292.069 33.3155 292.069 32.5801V31.2805V10.0843L316.137 38V5.49046C316.137 4.74496 316.307 4.08006 316.637 3.48568C316.978 2.8913 317.548 2.72004 318.478 2.20626H318.468L318.518 1.81336Z" fill="black"/>
<path d="M178.721 1.81336H173.829H170.008L170.058 2.20626H170.048C170.978 2.72004 171.548 2.8913 171.888 3.48568C172.228 4.08006 172.388 4.75504 172.388 5.49046V6.79003V27.4019L155.873 8.25079C155.523 7.86797 155.163 7.465 154.793 7.06204C154.422 6.65907 154.072 6.24602 153.732 5.83298L148.33 0V5.92365V32.5801C148.33 33.3256 148.16 33.9905 147.83 34.5848C147.49 35.1792 146.92 35.3505 145.99 35.8643H146L145.95 36.2572H150.841H154.662L154.612 35.8643H154.622C153.692 35.3505 153.122 35.1792 152.782 34.5848C152.442 33.9905 152.282 33.3155 152.282 32.5801V31.2805V10.0843L176.35 38V5.49046C176.35 4.74496 176.52 4.08006 176.85 3.48568C177.19 2.8913 177.76 2.72004 178.691 2.20626H178.681L178.721 1.81336Z" fill="black"/>
<path d="M395.194 35.8743C394.444 35.4512 394.064 35.3001 393.554 34.9072C393.093 34.5143 392.763 34.2222 392.583 34.0408C392.423 33.8796 392.243 33.658 392.053 33.3658C391.863 33.0737 391.683 32.7715 391.523 32.4491C391.333 32.0965 391.143 31.6935 390.943 31.2402L376.688 0.554077L362.033 31.6129C361.843 32.0663 361.633 32.4793 361.413 32.8722C361.183 33.255 360.912 33.6479 360.572 34.0307C360.252 34.4035 359.852 34.7561 359.382 35.0986C358.992 35.3605 358.632 35.5217 358.021 35.8643H358.031L357.981 36.2572H363.753H367.575L367.525 35.8643H367.535C366.624 35.3605 366.104 35.1893 365.764 34.6151C365.654 34.4136 365.594 34.2222 365.594 34.0207C365.594 33.8293 365.654 33.5472 365.784 33.1744C365.914 32.8017 366.074 32.3786 366.264 31.895C366.454 31.4114 366.674 30.9077 366.914 30.3939C367.155 29.8802 367.375 29.3765 367.565 28.8929L368.425 26.9083H384.42L386.101 30.7768C386.421 31.5223 386.701 32.1872 386.941 32.7815C387.181 33.3759 387.551 34.3934 387.481 34.5546V34.5748C387.141 35.1691 386.611 35.3404 385.691 35.8542H385.701L385.651 36.2471H389.472H395.244L395.194 35.8743ZM369.865 23.6845L376.448 8.88547L382.98 23.6845H369.865Z" fill="black"/>
<path d="M496.668 35.8743C495.908 35.4512 495.528 35.3001 495.028 34.9072C494.568 34.5143 494.238 34.2222 494.058 34.0408C493.898 33.8796 493.717 33.658 493.527 33.3658C493.337 33.0737 493.157 32.7715 492.997 32.4491C492.807 32.0965 492.617 31.6935 492.417 31.2402L478.162 0.554077L463.507 31.6129C463.317 32.0663 463.107 32.4793 462.887 32.8722C462.657 33.255 462.387 33.6479 462.047 34.0307C461.727 34.4035 461.326 34.7561 460.856 35.0986C460.466 35.3605 460.106 35.5217 459.496 35.8643H459.506L459.456 36.2572H465.228H469.049L468.999 35.8643H469.009C468.099 35.3605 467.579 35.1893 467.238 34.6151C467.128 34.4136 467.068 34.2222 467.068 34.0207C467.068 33.8293 467.128 33.5472 467.259 33.1744C467.389 32.8017 467.549 32.3786 467.739 31.895C467.929 31.4114 468.149 30.9077 468.389 30.3939C468.629 29.8802 468.849 29.3765 469.039 28.8929L469.899 26.9083H485.895L487.575 30.7768C487.895 31.5223 488.176 32.1872 488.416 32.7815C488.656 33.3759 489.026 34.3934 488.956 34.5546V34.5748C488.616 35.1691 488.086 35.3404 487.165 35.8542H487.175L487.125 36.2471H490.947H496.718L496.668 35.8743ZM471.34 23.6845L477.922 8.88547L484.454 23.6845H471.34Z" fill="black"/>
<path d="M519.126 30.2932C518.806 30.7264 518.436 31.0991 518.026 31.4517C517.676 31.7439 517.215 32.0159 516.655 32.2375C516.115 32.4592 515.475 32.57 514.755 32.5801H505.321C505.311 32.4894 505.301 32.3987 505.301 32.298V30.9984V6.77995V5.49045C505.301 4.74496 505.471 4.08006 505.802 3.48568C506.142 2.8913 506.712 2.72004 507.642 2.20625H507.632L507.682 1.81335H502.791H498.969L499.019 2.20625H499.009C499.94 2.72004 500.51 2.8913 500.85 3.48568C501.19 4.08006 501.35 4.75503 501.35 5.49045V32.5801C501.35 33.3255 501.18 33.9904 500.85 34.5848C500.51 35.1792 499.94 35.3505 499.009 35.8643H499.019L498.969 36.2571H503.861H507.682H514.845H516.035H518.796L519.496 30.2831H519.126V30.2932Z" fill="black"/>
<path d="M542.004 30.2932C541.684 30.7264 541.314 31.0991 540.903 31.4517C540.553 31.7439 540.093 32.0159 539.533 32.2375C538.993 32.4592 538.353 32.57 537.632 32.5801H528.199C528.189 32.4894 528.179 32.3987 528.179 32.298V30.9984V6.77995V5.49045C528.179 4.74496 528.349 4.08006 528.679 3.48568C529.019 2.8913 529.59 2.72004 530.52 2.20625H530.51L530.56 1.81335H525.668H521.847L521.897 2.20625H521.887C522.817 2.72004 523.388 2.8913 523.728 3.48568C524.068 4.08006 524.228 4.75503 524.228 5.49045V32.5801C524.228 33.3255 524.058 33.9904 523.728 34.5848C523.388 35.1792 522.817 35.3505 521.887 35.8643H521.897L521.847 36.2571H526.739H530.56H537.722H538.913H541.674L542.374 30.2831H542.004V30.2932Z" fill="black"/>
<path d="M618.14 30.2932C617.82 30.7264 617.449 31.0991 617.039 31.4517C616.689 31.7439 616.229 32.0159 615.669 32.2375C615.129 32.4592 614.488 32.57 613.768 32.5801H604.335C604.325 32.4894 604.315 32.3987 604.315 32.298V30.9984V6.77995V5.49045C604.315 4.74496 604.485 4.08006 604.815 3.48568C605.155 2.8913 605.725 2.72004 606.656 2.20625H606.646L606.696 1.81335H601.804H597.983L598.033 2.20625H598.023C598.953 2.72004 599.523 2.8913 599.863 3.48568C600.204 4.08006 600.364 4.75503 600.364 5.49045V32.5801C600.364 33.3255 600.194 33.9904 599.863 34.5848C599.523 35.1792 598.953 35.3505 598.023 35.8643H598.033L597.983 36.2571H602.875H606.696H613.858H615.049H617.81L618.51 30.2831H618.14V30.2932Z" fill="black"/>
<path d="M677.38 22.7879C676.96 21.8006 676.439 20.9242 675.819 20.1485C675.189 19.3727 674.499 18.728 673.729 18.2142C672.958 17.7004 672.218 17.3478 671.518 17.1463C672.028 16.8844 672.548 16.5318 673.058 16.0785C673.578 15.6251 674.029 15.1013 674.429 14.5069C674.829 13.9125 675.149 13.2375 675.389 12.5021C675.629 11.7566 675.749 10.9708 675.749 10.1347C675.749 8.74442 675.499 7.53552 674.999 6.47772C674.499 5.43 673.839 4.55354 673.018 3.83827C672.198 3.13308 671.248 2.60922 670.177 2.26669C669.097 1.92417 667.987 1.81335 666.826 1.81335H665.826H662.005H657.113L657.163 2.20625H657.153C658.083 2.72004 658.653 2.8913 658.994 3.48568C659.334 4.08006 659.494 4.75503 659.494 5.49045V32.5801C659.494 33.3255 659.324 33.9904 658.994 34.5848C658.653 35.1792 658.083 35.3505 657.153 35.8643H657.163L657.113 36.2571H662.005H665.826H667.687C668.677 36.2571 669.787 36.1363 670.988 35.7937C672.188 35.4512 673.318 34.887 674.359 34.1013C675.399 33.3155 676.269 32.2577 676.96 30.9279C677.65 29.6082 678 27.9459 678 25.9411C678 24.8229 677.8 23.7752 677.38 22.7879ZM663.445 5.1983C663.925 5.03711 664.445 4.93637 665.006 4.90614C665.566 4.87592 666.066 4.85577 666.516 4.85577C667.987 4.85577 669.257 5.29904 670.307 6.18557C671.368 7.0721 671.888 8.42205 671.888 10.2253C671.888 11.2932 671.738 12.1797 671.428 12.8849C671.128 13.6002 670.688 14.1744 670.127 14.6278C669.567 15.0811 668.897 15.4035 668.107 15.5949C667.326 15.7863 666.446 15.8871 665.486 15.8871H663.415V5.1983H663.445ZM673.288 29.6283C672.778 30.535 672.138 31.2301 671.388 31.7137C670.627 32.1972 669.837 32.5095 668.997 32.6606C668.157 32.8017 667.416 32.8823 666.776 32.8823C666.296 32.8823 665.756 32.8621 665.156 32.8319C664.565 32.8017 663.985 32.7009 663.445 32.5398V19.2821H666.826C669.047 19.2821 670.808 19.8664 672.108 21.0249C673.408 22.1834 674.059 23.8658 674.059 26.052C674.069 27.5329 673.809 28.7317 673.288 29.6283Z" fill="black"/>
<path d="M192.815 1.81335H198.427H199.618H202.379L203.079 7.78737H202.709C202.389 7.35418 202.019 6.98143 201.608 6.62884C201.258 6.33668 200.798 6.06468 200.238 5.84305C199.698 5.62141 199.058 5.5106 198.337 5.50052H192.825H191.685V16.6325H199.078C199.848 16.6325 200.548 16.5016 201.188 16.2497C201.288 16.2094 201.378 16.149 201.468 16.0986C202.019 15.7561 202.189 15.1919 202.689 14.2853V14.2953L203.079 14.245V18.0933V22.4252L202.689 22.3749V22.3849C202.519 22.0726 202.389 21.8208 202.269 21.579C201.889 21.0451 201.498 20.6723 201.088 20.4608C200.508 20.1686 199.838 20.0276 199.068 20.0276H191.675V32.6103H194.766H199.598C200.248 32.6103 200.848 32.57 201.398 32.4894C201.678 32.439 201.939 32.3685 202.179 32.2678C202.739 32.036 203.199 31.7741 203.549 31.482C203.969 31.1193 204.329 30.7465 204.649 30.3234H205.02L204.98 30.6257C204.99 30.6055 205.01 30.5954 205.02 30.5753L204.98 30.6357L204.319 36.2874H201.558H201.418H193.096H189.164H185.343L185.393 35.8945H185.383C186.313 35.3807 186.883 35.2094 187.224 34.6151C187.564 34.0207 187.724 33.3457 187.724 32.6103V31.3107V21.9316V8.38175V6.79002V5.49045C187.724 4.74496 187.554 4.08006 187.224 3.48568C186.883 2.8913 186.313 2.72004 185.383 2.20625H185.393L185.343 1.81335H189.164H193.006" fill="black"/>
<path d="M64.0117 35.8743C63.0814 35.3605 62.5112 35.1893 62.1711 34.5949C61.831 34.0005 61.6709 33.3255 61.6709 32.5901V31.2906V6.77995V5.49045C61.6709 4.74496 61.841 4.08006 62.1711 3.48568C62.5112 2.8913 63.0814 2.72004 64.0117 2.20625H64.0017L64.0518 1.81335H59.1601H55.3388L55.3888 2.20625H55.3788C56.3091 2.72004 56.8793 2.8913 57.2194 3.48568C57.5496 4.05991 57.7096 4.71473 57.7196 5.43V15.6654H39.2333V6.8001V5.49045C39.2333 4.74496 39.4034 4.08006 39.7335 3.48568C40.0736 2.8913 40.6438 2.72004 41.5741 2.20625H41.5641L41.6141 1.81335H36.7225H32.9012L32.9512 2.20625H32.9412C33.8715 2.72004 34.4417 2.8913 34.7818 3.48568C35.1119 4.06998 35.282 4.73488 35.282 5.46023V31.2906V32.5901C35.282 33.3356 35.1119 34.0005 34.7818 34.5949C34.4417 35.1893 33.8715 35.3605 32.9412 35.8743H32.9512L32.9012 36.2672H37.7928H41.6141L41.5641 35.8743H41.5741C40.6438 35.3605 40.0736 35.1893 39.7335 34.5949C39.3934 34.0005 39.2333 33.3255 39.2333 32.5901V31.2906V19.0403H57.7196V32.5901C57.7196 33.3356 57.5496 34.0005 57.2194 34.5949C56.8793 35.1893 56.3091 35.3605 55.3788 35.8743H55.3888L55.3388 36.2672H60.2305H64.0518L64.0117 35.8743Z" fill="black"/>
<path d="M75.7957 1.81335H81.4076H82.598H85.359L86.0592 7.78737H85.6891C85.369 7.35418 84.9988 6.98143 84.5887 6.62884C84.2386 6.33668 83.7784 6.06468 83.2182 5.84305C82.6781 5.62141 82.0378 5.5106 81.3176 5.50052H75.8057H74.6653V16.6325H82.0578C82.8281 16.6325 83.5283 16.5016 84.1686 16.2497C84.2686 16.2094 84.3586 16.149 84.4486 16.0986C84.9988 15.7561 85.1689 15.1919 85.6691 14.2853V14.2953L86.0592 14.245V18.0933V22.4252L85.6691 22.3749V22.3849C85.499 22.0726 85.369 21.8208 85.2489 21.579C84.8688 21.0451 84.4787 20.6723 84.0685 20.4608C83.4883 20.1686 82.8181 20.0276 82.0478 20.0276H74.6553V32.6103H77.7464H82.578C83.2382 32.6103 83.8284 32.57 84.3786 32.4894C84.6587 32.439 84.9188 32.3685 85.1589 32.2678C85.7191 32.036 86.1792 31.7741 86.5294 31.482C86.9495 31.1193 87.3096 30.7465 87.6297 30.3234H87.9999L87.9598 30.6257C87.9698 30.6055 87.9899 30.5954 87.9999 30.5753L87.9598 30.6357L87.2996 36.2874H84.5387H84.3986H76.0758H72.1445H68.3232L68.3732 35.8945H68.3632C69.2935 35.3807 69.8637 35.2094 70.2038 34.6151C70.5439 34.0207 70.704 33.3457 70.704 32.6103V31.3107V21.9316V8.38175V6.79002V5.49045C70.704 4.74496 70.5339 4.08006 70.2038 3.48568C69.8637 2.8913 69.2935 2.72004 68.3632 2.20625H68.3732L68.3232 1.81335H72.1445H75.9858" fill="black"/>
<path d="M27.9295 1.81335H25.1685H23.9781H18.3662H10.2535H4.65158H3.46117H0.700237L0 7.49522H0.370126C0.690234 7.06203 1.06036 6.68928 1.4705 6.33668C1.83062 6.03446 2.28077 5.77253 2.84096 5.54082C3.38115 5.31919 4.02136 5.20837 4.74161 5.1983H10.2535H11.3939H12.3342V15.8871V32.5801V32.5901C12.3342 33.3356 12.1641 34.0005 11.834 34.5949C11.4939 35.1893 10.9237 35.3605 9.99339 35.8743H10.0034L9.95338 36.2672H14.845H18.6663L18.6163 35.8743H18.6263C17.696 35.3605 17.1258 35.1893 16.7857 34.5949C16.4456 34.0005 16.2855 33.3255 16.2855 32.5901V31.2906V19.0403V5.1983H17.2258H18.3662H23.8781C24.6083 5.20837 25.2486 5.31919 25.7787 5.54082C26.3389 5.77253 26.7991 6.03446 27.1492 6.32661C27.5693 6.68928 27.9295 7.06203 28.2496 7.48515H28.6197L27.9295 1.81335Z" fill="black"/>
</svg>
