<svg width="541" height="40" viewBox="0 0 541 40" fill="none" xmlns="http://www.w3.org/2000/svg">
<g clip-path="url(#clip0)">
<path d="M65.15 29.17C65.15 30.73 64.9 32.14 64.41 33.4C63.92 34.66 63.22 35.74 62.32 36.64C61.42 37.54 60.34 38.23 59.08 38.71C57.82 39.19 56.41 39.42 54.85 39.42C53.35 39.42 51.98 39.2 50.72 38.76C49.46 38.32 48.39 37.66 47.51 36.8C46.63 35.93 45.94 34.85 45.45 33.56C44.96 32.27 44.71 30.77 44.71 29.07C44.71 28.12 44.87 27.15 45.19 26.16C45.51 25.18 45.97 24.23 46.57 23.33C47.16 22.43 47.89 21.58 48.74 20.78C49.59 19.98 50.54 19.28 51.59 18.66C51.01 18.25 50.4 17.77 49.76 17.21C49.11 16.65 48.53 16.02 48 15.32C47.47 14.62 47.04 13.88 46.7 13.08C46.36 12.28 46.19 11.42 46.19 10.51C46.19 9.25 46.42 8.08 46.88 6.99C47.34 5.9 47.96 4.97 48.74 4.19C49.52 3.41 50.44 2.8 51.49 2.35C52.54 1.91 53.66 1.69 54.85 1.69C56.11 1.69 57.27 1.9 58.34 2.33C59.41 2.76 60.34 3.35 61.12 4.11C61.9 4.87 62.52 5.81 62.98 6.91C63.44 8.01 63.67 9.25 63.67 10.61C63.67 11.49 63.5 12.34 63.16 13.13C62.82 13.93 62.39 14.67 61.86 15.35C61.33 16.03 60.75 16.64 60.1 17.19C59.45 17.73 58.83 18.21 58.21 18.62C60.28 19.88 61.96 21.42 63.23 23.26C64.52 25.09 65.15 27.07 65.15 29.17ZM60.87 28.71C60.87 27.15 60.34 25.67 59.29 24.27C58.24 22.88 56.79 21.69 54.96 20.7C54.18 21.14 53.43 21.64 52.72 22.2C52.01 22.76 51.38 23.37 50.83 24.04C50.29 24.7 49.84 25.43 49.5 26.23C49.16 27.03 48.99 27.87 48.99 28.75C48.99 29.67 49.12 30.54 49.37 31.38C49.62 32.21 49.99 32.95 50.47 33.6C50.95 34.25 51.55 34.76 52.28 35.15C53.01 35.54 53.87 35.74 54.85 35.74C56.55 35.74 57.98 35.15 59.13 33.96C60.29 32.78 60.87 31.03 60.87 28.71ZM59.8 10.41C59.8 8.98 59.33 7.78 58.4 6.82C57.46 5.85 56.28 5.37 54.86 5.37C53.43 5.37 52.28 5.86 51.39 6.85C50.51 7.84 50.06 9.02 50.06 10.42C50.06 11.47 50.42 12.54 51.13 13.61C51.84 14.68 53.07 15.76 54.8 16.85C56.43 15.97 57.67 14.92 58.52 13.71C59.38 12.49 59.8 11.4 59.8 10.41Z" fill="black"/>
<path d="M10.94 38.31C9.96 37.77 9.35 37.6 9 36.97C8.64 36.34 8.46 35.64 8.46 34.85V33.7V1.95L6.73 1.69L0 10.87L0.82 11.64L4.29 8.48V33.49V34.86C4.29 35.64 4.11 36.35 3.75 36.98C3.39 37.61 2.78 37.78 1.8 38.33L1.75 38.74H6.94H10.99L10.94 38.31Z" fill="black"/>
<path d="M26.1 35.64C29.89 35.67 31.69 33.23 31.69 33.23C32.52 32.4 33.19 31.35 33.68 30.09C34.17 28.83 34.42 27.39 34.42 25.76C34.42 23.28 33.72 21.38 32.33 20.08C30.94 18.77 29.15 18.12 26.98 18.12C26.2 18.12 25.44 18.21 24.71 18.4C23.98 18.59 23.27 18.83 22.59 19.14C21.91 19.45 21.28 19.79 20.7 20.16C20.12 20.54 19.61 20.89 19.17 21.23L18.66 20.87L21.46 2.44L25.98 2.43H31.83C32.6 2.42 33.28 2.31 33.85 2.07C34.44 1.83 34.93 1.55 35.3 1.24C35.74 0.860002 36.13 0.470002 36.47 0.0100021H36.87L36.13 6.3H33.2H31.94H25.99V6.28H25.77H24.84L23.51 15.41C24.97 14.83 26.35 14.54 27.64 14.54C29.17 14.54 30.61 14.76 31.97 15.2C33.33 15.64 34.5 16.3 35.49 17.16C36.48 18.03 37.26 19.11 37.83 20.42C38.41 21.73 38.7 23.25 38.7 24.98C38.7 27.09 38.41 29.02 37.83 30.77C37.25 32.52 36.39 34.04 35.26 35.33C35.26 35.33 32.68 39.36 26.54 39.36C25.38 39.31 24.38 39.22 23.54 39.1C22.2 38.9 21.12 38.66 20.3 38.39L18.31 37.78H18.32L16.98 30.87H17.38C17.72 31.32 18.7 32.63 19.14 33.02C21.89 35.71 26.1 35.64 26.1 35.64Z" fill="black"/>
<path d="M84.96 19.75C84.96 17.14 85.42 14.7 86.34 12.42C87.26 10.14 88.52 8.18 90.13 6.52C91.74 4.86 93.63 3.56 95.8 2.6C97.98 1.65 100.33 1.17 102.88 1.17C105.49 1.17 107.89 1.63 110.08 2.55C112.27 3.47 114.16 4.76 115.75 6.42C117.34 8.08 118.59 10.04 119.49 12.32C120.39 14.6 120.85 17.07 120.85 19.75C120.85 22.36 120.39 24.8 119.47 27.08C118.55 29.36 117.29 31.32 115.68 32.98C114.07 34.64 112.17 35.94 109.98 36.9C107.79 37.85 105.42 38.33 102.88 38.33C100.3 38.33 97.92 37.86 95.73 36.92C93.54 35.98 91.65 34.69 90.06 33.03C88.47 31.37 87.22 29.42 86.32 27.16C85.41 24.9 84.96 22.43 84.96 19.75ZM89.28 19.75C89.28 21.93 89.61 23.93 90.28 25.75C90.95 27.57 91.89 29.15 93.09 30.47C94.3 31.79 95.73 32.83 97.41 33.58C99.08 34.33 100.91 34.71 102.88 34.71C104.82 34.71 106.63 34.33 108.3 33.56C109.97 32.79 111.42 31.74 112.64 30.4C113.86 29.06 114.82 27.48 115.5 25.66C116.19 23.84 116.53 21.87 116.53 19.76C116.53 17.62 116.2 15.63 115.53 13.79C114.86 11.95 113.92 10.37 112.72 9.05C111.51 7.73 110.08 6.69 108.4 5.94C106.73 5.19 104.89 4.81 102.88 4.81C100.94 4.81 99.14 5.19 97.48 5.96C95.82 6.73 94.38 7.78 93.16 9.12C91.94 10.46 90.98 12.04 90.3 13.86C89.62 15.68 89.28 17.64 89.28 19.75Z" fill="black"/>
<path d="M452.44 37.22C451.51 36.7 451.12 36.57 450.41 35.95C450.27 35.77 450.12 35.61 449.99 35.41C449.35 34.51 448.85 33.12 448.48 31.24L443.29 0L427.86 29.46L412.46 0L406.73 31.25C406.36 33.12 405.86 34.51 405.22 35.42C405.09 35.61 404.94 35.78 404.8 35.96C404.09 36.58 403.71 36.71 402.77 37.23H402.78L402.73 37.63H409.11H413.09L413.04 37.23H413.05C412.1 36.71 411.55 36.52 411.2 35.94C411.17 35.88 411.13 35.82 411.11 35.76C411.01 35.51 410.95 35.24 410.93 34.96C410.91 34.68 410.9 34.3 410.9 33.83C410.9 33.43 410.98 32.69 411.13 31.62L414.51 12.56L427.87 38.8H427.91L441.27 12.56L444.1 31.62C444.25 32.69 444.33 33.43 444.33 33.83C444.33 34.3 444.32 34.68 444.3 34.96C444.28 35.24 444.22 35.51 444.12 35.76C444.1 35.82 444.06 35.88 444.03 35.94C443.68 36.53 443.13 36.71 442.18 37.23H442.19L442.14 37.63H446.12H452.5L452.44 37.22Z" fill="black"/>
<path d="M226.4 37.22C225.43 36.68 224.83 36.51 224.48 35.89C224.13 35.27 223.95 34.58 223.95 33.81V32.46V7.04V5.69C223.95 4.92 224.13 4.23 224.48 3.61C224.83 2.99 225.43 2.82 226.4 2.28H226.39L226.44 1.88H221.33H217.34L217.39 2.28H217.38C218.35 2.82 218.95 2.99 219.3 3.61C219.64 4.21 219.81 4.88 219.82 5.62V16.24H200.5V7.04V5.69C200.5 4.92 200.68 4.23 201.03 3.61C201.38 2.99 201.98 2.82 202.95 2.28H202.94L202.99 1.88H197.88H193.89L193.94 2.28H193.93C194.9 2.82 195.5 2.99 195.85 3.61C196.2 4.22 196.37 4.91 196.38 5.66V32.46V33.8C196.38 34.57 196.2 35.26 195.85 35.88C195.5 36.5 194.9 36.67 193.93 37.21H193.94L193.89 37.61H199H203L202.95 37.21H202.96C201.99 36.67 201.39 36.5 201.04 35.88C200.69 35.26 200.51 34.57 200.51 33.8V32.46V19.75H219.84V33.81C219.84 34.58 219.66 35.27 219.31 35.89C218.96 36.51 218.36 36.68 217.39 37.22H217.4L217.35 37.62H222.46H226.45L226.4 37.22Z" fill="black"/>
<path d="M344.97 17.26H339.86H335.87L335.92 17.66H335.91C336.88 18.2 337.48 18.37 337.83 18.99C338.18 19.61 338.36 20.3 338.36 21.07V21.28H338.35V33.7C337.51 33.97 336.46 34.2 335.19 34.4C333.92 34.6 332.56 34.7 331.12 34.7C329.01 34.7 327.06 34.35 325.27 33.65C323.48 32.95 321.93 31.95 320.63 30.66C319.32 29.37 318.3 27.8 317.57 25.94C316.83 24.08 316.47 22 316.47 19.69C316.47 17.48 316.83 15.47 317.55 13.64C318.27 11.82 319.26 10.25 320.51 8.95C321.77 7.65 323.25 6.62 324.95 5.89C326.66 5.15 328.5 4.79 330.47 4.79C333.08 4.79 335.43 5.24 337.52 6.15C339.61 7.05 341.24 8.38 342.41 10.12V10.14L342.9 10.21V5.21V0.589996L342.5 0.639996V0.629996C341.96 1.6 341.21 2.72 339.76 2.55L339.68 2.53C339.18 2.39 338.65 2.25 338.07 2.11C337.08 1.86 335.96 1.64 334.71 1.46C333.46 1.28 332.04 1.18 330.47 1.18C327.76 1.18 325.28 1.67 323.04 2.64C320.8 3.61 318.87 4.93 317.27 6.61C315.66 8.28 314.41 10.24 313.51 12.48C312.61 14.72 312.15 17.13 312.15 19.71C312.15 22.22 312.54 24.6 313.33 26.84C314.12 29.08 315.32 31.06 316.94 32.76C318.56 34.47 320.62 35.82 323.11 36.83C325.6 37.83 328.54 38.34 331.92 38.34C333.53 38.34 334.86 38.29 335.91 38.19C336.96 38.09 337.87 37.97 338.62 37.84C339.37 37.71 340.03 37.58 340.6 37.46C341.17 37.34 341.79 37.25 342.46 37.18V22.42H342.47V21.07C342.47 20.3 342.65 19.61 343 18.99C343.35 18.37 343.95 18.2 344.92 17.66H344.91L344.97 17.26Z" fill="black"/>
<path d="M265.55 37.62L265.5 37.22H265.51C264.54 36.68 263.94 36.51 263.59 35.89C263.24 35.27 263.06 34.58 263.06 33.81V32.46V6.97V5.62C263.06 4.85 263.24 4.16 263.59 3.54C263.94 2.92 264.54 2.75 265.51 2.21H265.5L265.55 1.81H260.44H256.45L256.5 2.21H256.49C257.46 2.75 258.06 2.92 258.41 3.54C258.76 4.16 258.94 4.85 258.94 5.62V6.02V28.91C258.74 29.18 258.31 29.6 257.66 30.16C257.01 30.73 256.2 31.31 255.23 31.89C254.26 32.48 253.15 32.99 251.92 33.42C250.69 33.85 249.38 34.07 248 34.07C246.46 34.07 245.16 33.78 244.08 33.19C243.01 32.6 242.15 31.78 241.49 30.73C240.84 29.68 240.36 28.41 240.06 26.94C239.76 25.47 239.61 23.84 239.61 22.07V6.97V5.62C239.61 4.85 239.79 4.16 240.14 3.54C240.49 2.92 241.09 2.75 242.06 2.21H242.05L242.1 1.81H236.99H233L233.05 2.21H233.04C234.01 2.75 234.61 2.92 234.96 3.54C235.31 4.16 235.49 4.85 235.49 5.62V23.9C235.49 26.11 235.79 28.08 236.39 29.82C236.99 31.56 237.84 33.03 238.92 34.24C240.01 35.44 241.3 36.37 242.81 37C244.32 37.63 245.99 37.95 247.83 37.95C249.07 37.95 250.23 37.78 251.32 37.45C252.41 37.12 253.41 36.7 254.33 36.2C255.25 35.7 256.09 35.15 256.87 34.57C257.64 33.98 258.33 33.44 258.93 32.94L258.91 33.01H258.93C258.93 33.4 258.93 33.81 258.93 33.81V37.63L265.55 37.62Z" fill="black"/>
<path d="M306.11 1.88H301H297L297.05 2.28H297.04C298.01 2.82 298.61 2.99 298.96 3.61C299.31 4.23 299.49 4.92 299.49 5.69V7.04V28.44L282.23 8.56C281.86 8.16 281.48 7.75 281.1 7.33C280.72 6.91 280.35 6.49 280 6.05L274.35 0V6.15V33.81C274.35 34.58 274.17 35.27 273.82 35.89C273.47 36.51 272.87 36.68 271.9 37.22H271.91L271.86 37.62H276.97H280.96L280.91 37.22H280.92C279.95 36.68 279.35 36.51 279 35.89C278.65 35.27 278.47 34.58 278.47 33.81V32.46V10.47L303.62 39.43V5.7C303.62 4.93 303.8 4.24 304.15 3.62C304.5 3 305.1 2.83 306.07 2.29H306.06L306.11 1.88Z" fill="black"/>
<path d="M160.03 1.88H154.92H150.93L150.98 2.28H150.97C151.94 2.82 152.54 2.99 152.89 3.61C153.24 4.23 153.42 4.92 153.42 5.69V7.04V28.44L136.15 8.56C135.78 8.16 135.4 7.75 135.02 7.33C134.64 6.91 134.27 6.49 133.92 6.05L128.27 0V6.15V33.81C128.27 34.58 128.09 35.27 127.74 35.89C127.39 36.51 126.79 36.68 125.82 37.22H125.83L125.78 37.62H130.89H134.88L134.83 37.22H134.84C133.87 36.68 133.27 36.51 132.92 35.89C132.57 35.27 132.39 34.58 132.39 33.81V32.46V10.47L157.54 39.43V5.7C157.54 4.93 157.72 4.24 158.07 3.62C158.42 3 159.02 2.83 159.99 2.29H159.98L160.03 1.88Z" fill="black"/>
<path d="M386.23 37.22C385.45 36.78 385.05 36.62 384.52 36.21C384.04 35.8 383.7 35.5 383.51 35.31C383.34 35.14 383.16 34.91 382.96 34.61C382.76 34.31 382.58 33.99 382.41 33.66C382.21 33.29 382.01 32.87 381.81 32.4L366.9 0.580002L351.59 32.8C351.39 33.27 351.17 33.7 350.94 34.11C350.7 34.51 350.41 34.91 350.06 35.31C349.72 35.69 349.31 36.06 348.82 36.42C348.42 36.69 348.03 36.86 347.39 37.22H347.4L347.35 37.62H353.39H357.38L357.33 37.22H357.34C356.39 36.7 355.84 36.51 355.49 35.93C355.37 35.72 355.32 35.52 355.32 35.32C355.32 35.12 355.39 34.83 355.52 34.44C355.65 34.06 355.82 33.61 356.02 33.11C356.22 32.61 356.45 32.09 356.7 31.55C356.95 31.02 357.18 30.5 357.38 29.99L358.28 27.93H375L376.76 31.95C377.09 32.72 377.39 33.41 377.64 34.03C377.89 34.65 378.28 35.71 378.2 35.87V35.89C377.85 36.51 377.29 36.68 376.32 37.22H376.33L376.28 37.62H380.27H386.31L386.23 37.22ZM359.77 24.57L366.65 9.21L373.48 24.57H359.77Z" fill="black"/>
<path d="M492.27 37.22C491.48 36.78 491.08 36.62 490.55 36.21C490.07 35.8 489.73 35.5 489.54 35.31C489.37 35.14 489.19 34.91 488.99 34.61C488.79 34.31 488.61 33.99 488.44 33.66C488.24 33.29 488.04 32.87 487.84 32.4L472.93 0.580002L457.62 32.8C457.42 33.27 457.2 33.7 456.97 34.11C456.73 34.51 456.44 34.91 456.09 35.31C455.75 35.69 455.34 36.06 454.85 36.42C454.45 36.69 454.06 36.86 453.42 37.22H453.43L453.38 37.62H459.42H463.41L463.36 37.22H463.37C462.42 36.7 461.87 36.51 461.52 35.93C461.4 35.72 461.35 35.52 461.35 35.32C461.35 35.12 461.42 34.83 461.55 34.44C461.68 34.06 461.85 33.61 462.05 33.11C462.25 32.61 462.48 32.09 462.73 31.55C462.98 31.02 463.21 30.5 463.41 29.99L464.31 27.93H481.03L482.79 31.95C483.12 32.72 483.42 33.41 483.67 34.03C483.92 34.65 484.31 35.71 484.23 35.87V35.89C483.88 36.51 483.32 36.68 482.35 37.22H482.36L482.31 37.62H486.3H492.34L492.27 37.22ZM465.8 24.57L472.68 9.21L479.51 24.57H465.8Z" fill="black"/>
<path d="M515.74 31.43C515.4 31.87 515.02 32.26 514.59 32.64C514.22 32.95 513.74 33.22 513.16 33.46C512.6 33.69 511.93 33.8 511.17 33.81H501.32C501.31 33.71 501.3 33.62 501.3 33.52V32.17V7.04V5.69C501.3 4.92 501.48 4.23 501.83 3.61C502.18 2.99 502.78 2.82 503.75 2.28H503.74L503.79 1.88H498.68H494.69L494.74 2.28H494.73C495.7 2.82 496.3 2.99 496.65 3.61C497 4.23 497.18 4.92 497.18 5.69V33.8C497.18 34.57 497 35.26 496.65 35.88C496.3 36.5 495.7 36.67 494.73 37.21H494.74L494.69 37.61H499.8H503.79H511.27H512.51H515.4L516.13 31.42H515.74V31.43Z" fill="black"/>
<path d="M539.64 31.43C539.3 31.87 538.92 32.26 538.49 32.64C538.12 32.95 537.64 33.22 537.06 33.46C536.5 33.69 535.83 33.8 535.07 33.81H525.22C525.21 33.71 525.2 33.62 525.2 33.52V32.17V7.04V5.69C525.2 4.92 525.38 4.23 525.73 3.61C526.08 2.99 526.68 2.82 527.65 2.28H527.64L527.69 1.88H522.58H518.59L518.64 2.28H518.63C519.6 2.82 520.2 2.99 520.55 3.61C520.9 4.23 521.08 4.92 521.08 5.69V33.8C521.08 34.57 520.9 35.26 520.55 35.88C520.2 36.5 519.6 36.67 518.63 37.21H518.64L518.59 37.61H523.7H527.69H535.17H536.41H539.3L540.03 31.42H539.64V31.43Z" fill="black"/>
<path d="M174.76 1.88H180.62H181.86H184.75L185.48 8.07H185.09C184.76 7.63 184.37 7.24 183.94 6.86C183.57 6.55 183.09 6.28 182.51 6.04C181.95 5.81 181.28 5.7 180.52 5.69H174.76H173.57V17.24H181.3C182.1 17.24 182.84 17.11 183.51 16.84C183.61 16.8 183.71 16.74 183.81 16.68C184.38 16.32 184.57 15.74 185.09 14.8V14.81L185.49 14.76V18.75V23.24L185.09 23.19V23.2C184.91 22.88 184.78 22.61 184.65 22.37C184.26 21.82 183.84 21.42 183.42 21.21C182.82 20.91 182.11 20.76 181.31 20.76H173.58V33.81H176.81H181.86C182.54 33.81 183.17 33.77 183.74 33.69C184.03 33.63 184.31 33.56 184.56 33.46C185.15 33.22 185.62 32.95 185.99 32.64C186.42 32.26 186.81 31.88 187.14 31.43H187.53L187.49 31.75C187.5 31.73 187.52 31.72 187.53 31.7L187.49 31.76L186.8 37.62H183.91H183.76H175.06H170.95H166.96L167.01 37.22H167C167.97 36.68 168.57 36.51 168.92 35.89C169.27 35.27 169.45 34.58 169.45 33.81V32.46V22.73V8.7V7.05V5.7C169.45 4.93 169.27 4.24 168.92 3.62C168.57 3 167.97 2.83 167 2.29H167.01L166.96 1.89H170.95H174.96" fill="black"/>
</g>
<defs>
<clipPath id="clip0">
<rect width="540.03" height="39.43" fill="white"/>
</clipPath>
</defs>
</svg>
